<svg width="54" height="54" viewBox="0 0 54 54" fill="none" xmlns="http://www.w3.org/2000/svg">
<path d="M0 26.5512C0 11.8874 11.8874 0 26.5512 0C41.215 0 53.1024 11.8874 53.1024 26.5512C53.1024 41.215 41.215 53.1024 26.5512 53.1024C11.8874 53.1024 0 41.215 0 26.5512Z" fill="#A7D1CE"/>
<path d="M21.204 37.312C19.6613 37.312 18.3093 36.896 17.148 36.064C15.9867 35.232 15.0767 34.062 14.418 32.554C13.7767 31.046 13.456 29.2953 13.456 27.302C13.456 25.2913 13.7767 23.5407 14.418 22.05C15.0593 20.5593 15.9607 19.398 17.122 18.566C18.2833 17.734 19.6353 17.318 21.178 17.318C22.7553 17.318 24.116 17.734 25.26 18.566C26.4213 19.398 27.3313 20.568 27.99 22.076C28.6487 23.5667 28.978 25.3087 28.978 27.302C28.978 29.2953 28.6487 31.046 27.99 32.554C27.3487 34.0447 26.4473 35.2147 25.286 36.064C24.1247 36.896 22.764 37.312 21.204 37.312ZM21.23 34.088C22.114 34.088 22.868 33.8193 23.492 33.282C24.116 32.7273 24.5927 31.9473 24.922 30.942C25.2687 29.9193 25.442 28.706 25.442 27.302C25.442 25.898 25.2687 24.6933 24.922 23.688C24.5927 22.6653 24.1073 21.8853 23.466 21.348C22.842 20.8107 22.0793 20.542 21.178 20.542C20.3113 20.542 19.566 20.8107 18.942 21.348C18.318 21.8853 17.8327 22.6653 17.486 23.688C17.1567 24.6933 16.992 25.898 16.992 27.302C16.992 28.6887 17.1567 29.8933 17.486 30.916C17.8327 31.9213 18.318 32.7013 18.942 33.256C19.5833 33.8107 20.346 34.088 21.23 34.088ZM34.9062 37V20.646H31.1622V17.63H38.4422V37H34.9062Z" fill="#FAAD00"/>
</svg>
