<svg width="54" height="54" viewBox="0 0 54 54" fill="none" xmlns="http://www.w3.org/2000/svg">
<path d="M0 26.5512C0 11.8874 11.8874 0 26.5512 0C41.215 0 53.1024 11.8874 53.1024 26.5512C53.1024 41.215 41.215 53.1024 26.5512 53.1024C11.8874 53.1024 0 41.215 0 26.5512Z" fill="#FAAD00"/>
<path d="M19.204 37.312C17.6613 37.312 16.3093 36.896 15.148 36.064C13.9867 35.232 13.0767 34.062 12.418 32.554C11.7767 31.046 11.456 29.2953 11.456 27.302C11.456 25.2913 11.7767 23.5407 12.418 22.05C13.0593 20.5593 13.9607 19.398 15.122 18.566C16.2833 17.734 17.6353 17.318 19.178 17.318C20.7553 17.318 22.116 17.734 23.26 18.566C24.4213 19.398 25.3313 20.568 25.99 22.076C26.6487 23.5667 26.978 25.3087 26.978 27.302C26.978 29.2953 26.6487 31.046 25.99 32.554C25.3487 34.0447 24.4473 35.2147 23.286 36.064C22.1247 36.896 20.764 37.312 19.204 37.312ZM19.23 34.088C20.114 34.088 20.868 33.8193 21.492 33.282C22.116 32.7273 22.5927 31.9473 22.922 30.942C23.2687 29.9193 23.442 28.706 23.442 27.302C23.442 25.898 23.2687 24.6933 22.922 23.688C22.5927 22.6653 22.1073 21.8853 21.466 21.348C20.842 20.8107 20.0793 20.542 19.178 20.542C18.3113 20.542 17.566 20.8107 16.942 21.348C16.318 21.8853 15.8327 22.6653 15.486 23.688C15.1567 24.6933 14.992 25.898 14.992 27.302C14.992 28.6887 15.1567 29.8933 15.486 30.916C15.8327 31.9213 16.318 32.7013 16.942 33.256C17.5833 33.8107 18.346 34.088 19.23 34.088ZM29.6042 37V34.322L34.8562 28.836C35.8962 27.744 36.6935 26.8773 37.2482 26.236C37.8202 25.5773 38.2189 25.014 38.4442 24.546C38.6695 24.078 38.7822 23.6013 38.7822 23.116C38.7822 22.3013 38.5222 21.66 38.0022 21.192C37.4995 20.724 36.8495 20.49 36.0522 20.49C35.2202 20.49 34.5009 20.7327 33.8942 21.218C33.2875 21.686 32.8455 22.3793 32.5682 23.298L29.4742 22.336C29.6822 21.3133 30.1069 20.4293 30.7482 19.684C31.3895 18.9213 32.1695 18.3407 33.0882 17.942C34.0242 17.526 35.0122 17.318 36.0522 17.318C37.3002 17.318 38.3922 17.5433 39.3282 17.994C40.2815 18.4447 41.0182 19.0773 41.5382 19.892C42.0755 20.7067 42.3442 21.66 42.3442 22.752C42.3442 23.4453 42.2142 24.13 41.9542 24.806C41.6942 25.482 41.3042 26.1753 40.7842 26.886C40.2642 27.5793 39.5882 28.3593 38.7562 29.226L34.2062 34.01H42.6042V37H29.6042Z" fill="white"/>
</svg>
