<svg width="32" height="32" viewBox="0 0 32 32" fill="none" xmlns="http://www.w3.org/2000/svg">
<path d="M1.3323 30.7169C0.787758 31.1195 0.119219 30.4087 0.554336 29.8898L4.20498 25.5372C8.91894 19.9168 9.16756 11.7985 4.80641 5.90021L1.42896 1.33237C1.02636 0.787772 1.73714 0.119233 2.25609 0.554408L6.60869 4.20505C12.229 8.91896 20.3474 9.16759 26.2456 4.80644L30.8135 1.42899C31.3581 1.02639 32.0266 1.73717 31.5914 2.25611L27.9408 6.60871C23.2269 12.2291 22.9783 20.3474 27.3395 26.2457L30.7169 30.8135C31.1195 31.3581 30.4087 32.0266 29.8898 31.5915L25.5372 27.9409C19.9168 23.2269 11.7985 22.9783 5.90014 27.3395L1.3323 30.7169Z" fill="#84FC84"/>
</svg>
