<svg width="54" height="54" viewBox="0 0 54 54" fill="none" xmlns="http://www.w3.org/2000/svg">
<path d="M0 26.5512C0 11.8874 11.8874 0 26.5512 0C41.215 0 53.1024 11.8874 53.1024 26.5512C53.1024 41.215 41.215 53.1024 26.5512 53.1024C11.8874 53.1024 0 41.215 0 26.5512Z" fill="#84FC84"/>
<path d="M18.204 37.312C16.6613 37.312 15.3093 36.896 14.148 36.064C12.9867 35.232 12.0767 34.062 11.418 32.554C10.7767 31.046 10.456 29.2953 10.456 27.302C10.456 25.2913 10.7767 23.5407 11.418 22.05C12.0593 20.5593 12.9607 19.398 14.122 18.566C15.2833 17.734 16.6353 17.318 18.178 17.318C19.7553 17.318 21.116 17.734 22.26 18.566C23.4213 19.398 24.3313 20.568 24.99 22.076C25.6487 23.5667 25.978 25.3087 25.978 27.302C25.978 29.2953 25.6487 31.046 24.99 32.554C24.3487 34.0447 23.4473 35.2147 22.286 36.064C21.1247 36.896 19.764 37.312 18.204 37.312ZM18.23 34.088C19.114 34.088 19.868 33.8193 20.492 33.282C21.116 32.7273 21.5927 31.9473 21.922 30.942C22.2687 29.9193 22.442 28.706 22.442 27.302C22.442 25.898 22.2687 24.6933 21.922 23.688C21.5927 22.6653 21.1073 21.8853 20.466 21.348C19.842 20.8107 19.0793 20.542 18.178 20.542C17.3113 20.542 16.566 20.8107 15.942 21.348C15.318 21.8853 14.8327 22.6653 14.486 23.688C14.1567 24.6933 13.992 25.898 13.992 27.302C13.992 28.6887 14.1567 29.8933 14.486 30.916C14.8327 31.9213 15.318 32.7013 15.942 33.256C16.5833 33.8107 17.346 34.088 18.23 34.088ZM35.0262 37.312C33.9689 37.312 32.9635 37.1213 32.0102 36.74C31.0742 36.3413 30.2682 35.7867 29.5922 35.076C28.9335 34.348 28.4829 33.49 28.2402 32.502L31.3342 31.41C31.6462 32.294 32.1229 32.97 32.7642 33.438C33.4055 33.8887 34.1595 34.114 35.0262 34.114C35.7195 34.114 36.3175 33.984 36.8202 33.724C37.3402 33.464 37.7475 33.0913 38.0422 32.606C38.3369 32.1033 38.4842 31.514 38.4842 30.838C38.4842 30.162 38.3369 29.59 38.0422 29.122C37.7649 28.6367 37.3662 28.264 36.8462 28.004C36.3262 27.744 35.7109 27.614 35.0002 27.614C34.6709 27.614 34.3242 27.6487 33.9602 27.718C33.6135 27.7873 33.3015 27.8913 33.0242 28.03L32.2182 26.34L37.2362 20.62H29.3322V17.63H41.2142V20.412L36.1702 26.314L36.2222 24.988C37.3835 25.0053 38.3975 25.2567 39.2642 25.742C40.1309 26.2273 40.8069 26.8947 41.2922 27.744C41.7775 28.5933 42.0202 29.59 42.0202 30.734C42.0202 31.982 41.7169 33.1087 41.1102 34.114C40.5035 35.102 39.6715 35.882 38.6142 36.454C37.5569 37.026 36.3609 37.312 35.0262 37.312Z" fill="#FAAD00"/>
</svg>
